HIERARCHY
ROOT Hips
{
	OFFSET 0.000000 0.000000 0.000000
	CHANNELS 6 Xposition Yposition Zposition Xrotation Yrotation Zrotation
	JOINT LeftUpLeg_virtual
	{
		OFFSET 0.000000 0.000000 0.000000
		CHANNELS 3 Xrotation Yrotation Zrotation
		JOINT LeftUpLeg
		{
			OFFSET 11.394100 -6.187798 -0.413800
			CHANNELS 3 Xrotation Yrotation Zrotation
			JOINT LeftLeg
			{
				OFFSET 0.430247 -32.302673 3.732800
				CHANNELS 3 Xrotation Yrotation Zrotation
				JOINT LeftFoot
				{
					OFFSET -0.430247 -48.264931 -6.423300
					CHANNELS 3 Xrotation Yrotation Zrotation
					JOINT LeftToeBase
					{
						OFFSET 4.230900 -16.068199 23.438400
						CHANNELS 3 Xrotation Yrotation Zrotation
						JOINT LeftToe_End
						{
							OFFSET 4.510700 0.695400 19.974600
							CHANNELS 3 Xrotation Yrotation Zrotation
							End Site
							{
								OFFSET 0 0 0
							}
						}
					}
				}
			}
		}
	}
	JOINT RightUpLeg_virtual
	{
		OFFSET 0.000000 0.000000 0.000000
		CHANNELS 3 Xrotation Yrotation Zrotation
		JOINT RightUpLeg
		{
			OFFSET -11.333700 -6.187798 -0.413800
			CHANNELS 3 Xrotation Yrotation Zrotation
			JOINT RightLeg
			{
				OFFSET -0.430392 -32.302628 3.733000
				CHANNELS 3 Xrotation Yrotation Zrotation
				JOINT RightFoot
				{
					OFFSET 0.430392 -48.264973 -6.423500
					CHANNELS 3 Xrotation Yrotation Zrotation
					JOINT RightToeBase
					{
						OFFSET -4.230900 -16.068199 23.438400
						CHANNELS 3 Xrotation Yrotation Zrotation
						JOINT RightToe_End
						{
							OFFSET -4.510700 0.695400 19.974600
							CHANNELS 3 Xrotation Yrotation Zrotation
							End Site
							{
								OFFSET 0 0 0
							}
						}
					}
				}
			}
		}
	}
	JOINT Spine_virtual
	{
		OFFSET 0.000000 0.000000 0.000000
		CHANNELS 3 Xrotation Yrotation Zrotation
		JOINT Spine
		{
			OFFSET -0.002400 12.777504 0.315300
			CHANNELS 3 Xrotation Yrotation Zrotation
			JOINT Spine1
			{
				OFFSET -0.002067 5.816869 0.032633
				CHANNELS 3 Xrotation Yrotation Zrotation
				JOINT Spine1_split
				{
					OFFSET -0.002067 5.816869 0.032633
					CHANNELS 3 Xrotation Yrotation Zrotation
					JOINT Spine2
					{
						OFFSET -0.002067 5.816869 0.032633
						CHANNELS 3 Xrotation Yrotation Zrotation
						JOINT Neck_virtual
						{
							OFFSET 0.000000 0.000000 0.000000
							CHANNELS 3 Xrotation Yrotation Zrotation
							JOINT Neck
							{
								OFFSET -0.003700 21.199493 -0.826900
								CHANNELS 3 Xrotation Yrotation Zrotation
								JOINT Head
								{
									OFFSET 0.000000 20.442200 4.834800
									CHANNELS 3 Xrotation Yrotation Zrotation
									JOINT HeadTop_End
									{
										OFFSET 0.000000 34.668396 4.968400
										CHANNELS 3 Xrotation Yrotation Zrotation
										End Site
										{
											OFFSET 0 0 0
										}
									}
								}
							}
						}
						JOINT LeftShoulder_virtual
						{
							OFFSET 0.000000 0.000000 0.000000
							CHANNELS 3 Xrotation Yrotation Zrotation
							JOINT LeftShoulder
							{
								OFFSET 3.288150 8.794197 -1.372250
								CHANNELS 3 Xrotation Yrotation Zrotation
								JOINT LeftShoulder_split
								{
									OFFSET 3.288150 8.794197 -1.372250
									CHANNELS 3 Xrotation Yrotation Zrotation
									JOINT LeftArm
									{
										OFFSET 11.953299 -2.279007 -0.146200
										CHANNELS 3 Xrotation Yrotation Zrotation
										JOINT LeftForeArm
										{
											OFFSET 18.448900 0.000000 0.000000
											CHANNELS 3 Xrotation Yrotation Zrotation
											JOINT LeftHand
											{
												OFFSET 29.527798 0.000000 0.000000
												CHANNELS 3 Xrotation Yrotation Zrotation
												End Site
												{
													OFFSET 0 0 0
												}
											}
										}
									}
								}
							}
						}
						JOINT RightShoulder_virtual
						{
							OFFSET 0.000000 0.000000 0.000000
							CHANNELS 3 Xrotation Yrotation Zrotation
							JOINT RightShoulder
							{
								OFFSET -3.249400 8.794197 -1.372250
								CHANNELS 3 Xrotation Yrotation Zrotation
								JOINT RightShoulder_split
								{
									OFFSET -3.249400 8.794197 -1.372250
									CHANNELS 3 Xrotation Yrotation Zrotation
									JOINT RightArm
									{
										OFFSET -11.953299 -2.279007 -0.146200
										CHANNELS 3 Xrotation Yrotation Zrotation
										JOINT RightForeArm
										{
											OFFSET -18.448900 0.000000 0.000000
											CHANNELS 3 Xrotation Yrotation Zrotation
											JOINT RightHand
											{
												OFFSET -29.527802 0.000000 0.000000
												CHANNELS 3 Xrotation Yrotation Zrotation
												End Site
												{
													OFFSET 0 0 0
												}
											}
										}
									}
								}
							}
						}
					}
				}
			}
		}
	}
}
MOTION
Frames: 4
Frame Time: 0.03333333
6.386674 97.032669 -10.656353 0.000000 0.000000 0.000000 0.860452 -33.520280 -1.316839 -36.529156 9.535949 21.158391 24.027243 -11.805882 2.094472 7.640294 -11.432001 -14.024391 -0.147899 1.673817 4.423114 0.000000 0.000000 0.000000 -0.341622 -31.818221 -1.979903 5.605086 -25.773027 -6.030409 21.606617 8.303211 -3.130037 -27.165643 -20.307933 11.917600 1.973960 -0.318778 -20.782211 0.000000 0.000000 0.000000 -3.058190 -27.965608 -3.972240 8.211987 2.741935 3.381270 9.793226 5.922110 -2.438296 0.000871 -0.381562 0.117411 0.000000 0.000000 0.000000 9.058555 7.736982 -1.376675 -29.040089 0.123482 1.299103 -42.804529 -47.570902 2.507159 0.000000 0.000000 0.000000 6.418957 6.273671 -2.986848 1.484519 4.405799 0.742289 -2.541468 6.024391 -5.846113 -33.803747 -3.564206 -74.939060 8.735540 -34.810285 3.642163 0.000000 0.000000 0.000000 9.815347 6.466903 -1.616112 1.745682 2.025598 -6.110201 -9.237513 -5.937750 8.844568 -15.192760 -13.707237 59.201580 -0.170503 19.056615 5.320837 0.000000 0.000000 0.000000 
6.122332 97.016678 -9.751205 0.000000 0.000000 0.000000 1.502854 -33.084972 -1.107550 -39.346585 10.774751 22.355766 23.215944 -11.006835 1.777948 9.902208 -12.044177 -13.716689 0.465347 1.870982 4.980839 0.000000 0.000000 0.000000 0.559400 -31.521217 -1.716386 5.368415 -25.238589 -5.848543 21.986376 8.255510 -3.553144 -26.610275 -20.206257 13.255915 2.404471 -0.343306 -20.907086 0.000000 0.000000 0.000000 -1.387549 -27.720410 -3.306957 8.530238 3.051339 3.264493 10.526299 6.015672 -2.679398 0.219447 -0.410770 0.229987 0.000000 0.000000 0.000000 9.050438 7.874183 -1.416004 -29.739043 0.265816 1.598531 -43.425158 -47.272986 1.681688 0.000000 0.000000 0.000000 6.880669 6.327381 -3.154423 1.441191 3.881912 0.754032 -1.609692 5.074126 -5.272845 -30.872800 -2.863300 -73.921922 9.283342 -36.679847 3.320367 0.000000 0.000000 0.000000 10.064421 6.747700 -1.635706 2.055965 3.308363 -5.420508 -10.213944 -2.946076 5.824731 -14.734309 -15.088728 59.236482 -0.212294 19.750378 5.061137 0.000000 0.000000 0.000000 
5.651266 96.596962 -9.164356 0.000000 0.000000 0.000000 2.993870 -32.828211 -0.456854 -44.816378 12.143532 23.962086 22.906904 -9.140353 2.001231 13.292588 -12.986256 -11.677172 1.036034 2.386650 4.727065 0.000000 0.000000 0.000000 2.382138 -30.505264 -1.172173 4.183997 -23.499160 -5.520134 23.876506 8.096125 -4.263200 -26.473923 -20.407502 14.541696 1.881956 -0.151973 -21.079567 0.000000 0.000000 0.000000 0.157557 -26.506347 -2.836230 9.886764 3.302811 3.060164 11.237556 5.955850 -3.048341 0.319156 -0.502694 0.285213 0.000000 0.000000 0.000000 9.131895 7.885990 -1.626263 -30.952819 0.525010 2.480463 -44.382610 -46.219152 1.222969 0.000000 0.000000 0.000000 7.452049 6.229057 -3.492814 1.551996 2.191751 0.489473 -0.958611 4.067519 -3.972588 -24.476599 -2.366536 -70.794508 8.328452 -41.969439 1.537352 0.000000 0.000000 0.000000 10.187009 6.879904 -1.755255 2.175998 4.682446 -4.416903 -10.199626 -1.294954 2.976301 -12.669634 -14.677518 59.502668 -0.835289 22.243976 5.177289 0.000000 0.000000 0.000000 
5.099992 95.553513 -8.972809 0.000000 0.000000 0.000000 5.270623 -32.772784 0.415222 -52.393271 13.203359 25.784423 23.564697 -6.839837 2.713457 17.201777 -14.083937 -8.448070 1.248167 3.193077 3.900263 0.000000 0.000000 0.000000 4.946385 -29.076436 -0.500985 2.199928 -20.747845 -4.811003 26.856580 7.597974 -5.218851 -27.910873 -20.895205 14.633037 0.729152 0.161144 -21.090197 0.000000 0.000000 0.000000 1.748647 -24.741995 -2.520865 11.932449 3.454046 2.690698 11.734354 5.765865 -3.446479 0.244805 -0.564336 0.267299 0.000000 0.000000 0.000000 9.373735 7.786014 -1.942428 -32.475220 0.872116 3.822619 -45.066729 -44.493153 1.340608 0.000000 0.000000 0.000000 8.036523 6.052537 -3.862648 1.764996 -0.263271 0.117589 -0.236577 3.043834 -2.740852 -16.050400 -1.186519 -66.074430 5.561971 -49.707535 -1.900025 0.000000 0.000000 0.000000 10.247761 6.846155 -1.938180 2.027760 5.912256 -3.102690 -9.715837 -1.131645 1.132341 -9.797513 -12.864272 59.386500 -2.130402 26.183549 5.763098 0.000000 0.000000 0.000000 
